<svg version="1.1" xmlns="http://www.w3.org/2000/svg" xmlns:xlink="http://www.w3.org/1999/xlink" width="116.53075" height="71.49995" viewBox="0,0,116.53075,71.49995"><defs><linearGradient x1="195.1699" y1="176.1562" x2="286.1699" y2="176.1562" gradientUnits="userSpaceOnUse" id="color-1"><stop offset="0.012" stop-color="#a7a9ac"/><stop offset="1" stop-color="#414042"/></linearGradient><linearGradient x1="198.583" y1="176.1553" x2="282.7559" y2="176.1553" gradientUnits="userSpaceOnUse" id="color-2"><stop offset="0" stop-color="#d1d2d3"/><stop offset="1" stop-color="#a4a5a8"/></linearGradient></defs><g transform="translate(-180.01801,-137.40386)"><g data-paper-data="{&quot;isPaintingLayer&quot;:true}" fill="none" fill-rule="nonzero" stroke="none" stroke-width="none" stroke-linecap="butt" stroke-linejoin="miter" stroke-miterlimit="10" stroke-dasharray="" stroke-dashoffset="0" font-family="none" font-weight="none" font-size="none" text-anchor="none" style="mix-blend-mode: normal"><path d="M286.17,194.887c0,4.752 -3.854,8.605 -8.605,8.605h-73.792c-4.752,0 -8.604,-3.854 -8.604,-8.605v-37.463c0,-4.752 3.852,-8.604 8.604,-8.604h73.791c4.754,0 8.605,3.852 8.605,8.604v37.463z" fill="url(#color-1)" stroke-width="1"/><path d="M282.755,157.424v37.462c0,2.862 -2.327,5.19 -5.191,5.19h-73.791c-2.861,0 -5.19,-2.328 -5.19,-5.19v-37.463c0,-2.862 2.329,-5.19 5.19,-5.19h73.791c2.864,0 5.191,2.329 5.191,5.191z" fill="url(#color-2)" stroke-width="1"/><path d="M183.92425,149.60237c2.65712,-3.72122 6.03552,-6.21364 9.83443,-7.87394c3.10044,-1.5666 6.57154,-2.5064 10.24673,-2.6528c7.61639,-0.96752 15.76413,-0.36037 22.76259,-0.39513c11.24986,-0.05588 22.50004,0.02945 33.75,0c3.37442,-0.00883 7.7944,-1.873 10.99386,-1.08046c6.57756,1.62934 13.14667,5.65919 17.59989,10.87733c1.68813,1.9781 4.52455,10.86971 5.24833,13.29743c1.16404,3.90445 2.18868,8.61568 2.18868,12.67824c0,5.44181 -1.34767,10.4592 -3.11041,15.60278c-0.82223,2.39921 -0.79389,5.28335 -2.4516,7.2028c-2.04611,2.36917 -4.27145,4.59452 -6.64062,6.64063c-4.66195,4.02623 -14.23752,3.9929 -20.4308,4.46652c-14.69585,1.12384 -29.47724,0.12847 -44.21588,0.18973c-7.53689,0.03133 -13.90358,1.29794 -21.18144,-2.375c-8.32109,-4.19943 -10.97571,-13.18426 -12.5,-21.875c-0.18354,-1.04648 0.82041,-2.01457 0.83161,-3.07697c-0.8668,-0.91672 -1.66498,-1.89901 -2.3863,-2.93866c-2.80279,-4.03966 -4.44531,-8.9452 -4.44531,-14.23437c0,-3.13655 0.57762,-6.13819 1.63228,-8.90435c0.44467,-1.99787 1.0954,-3.89822 2.27397,-5.54877z" fill="#b38d3e" stroke-width="0.5"/><text transform="translate(223.018,168.9305) scale(0.23998,0.23998)" font-size="40" xml:space="preserve" data-paper-data="{&quot;origPos&quot;:null}" fill="#ff5959" fill-rule="nonzero" stroke="none" stroke-width="1" stroke-linecap="butt" stroke-linejoin="miter" stroke-miterlimit="10" stroke-dasharray="" stroke-dashoffset="0" font-family="Pixel" font-weight="normal" text-anchor="start" style="mix-blend-mode: normal"><tspan x="0" dy="0">Loading...</tspan></text><text transform="translate(252.643,181.18304) scale(0.22561,0.22561)" font-size="40" xml:space="preserve" data-paper-data="{&quot;origPos&quot;:null}" fill="#ff5959" fill-rule="nonzero" stroke="none" stroke-width="1" stroke-linecap="butt" stroke-linejoin="miter" stroke-miterlimit="10" stroke-dasharray="" stroke-dashoffset="0" font-family="Pixel" font-weight="normal" text-anchor="start" style="mix-blend-mode: normal"><tspan x="0" dy="0">%</tspan></text></g></g></svg>