<svg version="1.1" xmlns="http://www.w3.org/2000/svg" xmlns:xlink="http://www.w3.org/1999/xlink" width="317.17425" height="314.4694" viewBox="0,0,317.17425,314.4694"><g transform="translate(-70.65581,-11.37459)"><g stroke="none" stroke-miterlimit="10"><path d="M74.56206,286.20806c0.77013,-1.07855 1.85274,-1.98144 3.02425,-2.82389c1.69016,-1.76719 3.63697,-3.28687 5.78059,-4.49917c0.05865,-0.07267 0.11565,-0.1461 0.17091,-0.22036c0.26007,-0.34947 -1.08187,-4.15874 -1.14867,-4.82668c-0.31842,-3.18417 0.32565,-7.55162 0.67088,-10.64805c1.54671,-13.87268 9.12644,-27.98775 22.93431,-32.64819c8.08372,-2.72842 17.40175,-5.28202 25.94955,-5.76183c4.60218,-0.25833 9.47182,1.0808 13.82109,-0.44586c0.284,-0.09969 -0.38127,-0.46775 -0.54178,-0.72237c-0.69782,-1.10699 -1.42401,-2.20022 -2.03125,-3.35938c-1.35491,-2.58639 -2.43543,-5.61826 -2.96875,-8.51562c-1.71926,-9.34019 -1.48769,-20.31578 2.63932,-29.15204c5.88005,-12.58966 14.46159,-23.34421 27.29961,-29.42057c3.00775,-1.4236 6.29519,-2.79948 9.59048,-3.32595c2.35887,-0.37686 5.04062,0.40909 7.12644,-0.75523c0.3364,-0.18778 -0.73679,-1.28168 -2.02159,-3.52437c-1.46738,-2.56141 -2.60867,-5.65404 -3.16546,-8.51048c-1.86758,-9.58107 -0.81992,-18.93434 2.5421,-27.99141c4.12265,-11.10615 12.14912,-21.52999 23.34848,-26.16992c4.635,-1.92029 8.92575,-2.64721 13.75804,-4.01367c2.87866,-0.81402 9.0594,0.24155 8.55651,-2.70742c-1.10217,-6.46308 -3.8249,-12.30879 -3.98727,-18.99027c-0.36356,-14.96038 3.31933,-34.77988 18.35778,-42.0283c2.77423,-1.33716 12.67537,-4.8139 16.42815,-3.46833c4.69772,1.68439 9.22897,4.16836 12.98204,7.45777c2.28273,2.00071 2.99042,5.28362 4.53603,7.89604c0.92927,1.57068 2.73435,3.32427 2.92174,5.08599c0.40035,3.76378 0.11398,7.659 -0.82864,11.32476c-1.00321,3.90138 -4.53412,7.2306 -4.39709,11.25657c0.18084,5.31305 3.39219,11.37678 4.97678,16.39284c2.7016,8.55198 4.63723,15.58743 3.44576,24.49667c-0.89208,6.67054 -3.67998,12.35059 -8.53361,17.01668c-1.54707,1.48729 -2.63802,2.33915 -4.39315,3.40317c-0.97114,0.58873 -3.85537,0.9206 -2.98242,1.64701c2.51775,2.0951 9.64703,1.8104 13.15313,2.64899c10.04975,2.40369 22.65852,6.30623 26.38978,17.46891c3.25437,9.73598 2.53407,22.01675 -1.80009,31.48512c-2.1072,4.60338 -4.38452,9.52201 -6.82605,14.00287c-0.8717,1.59981 -1.75002,3.21549 -2.72065,4.75731c-0.42297,0.67187 -1.74379,1.74562 -1.05275,2.13646c0.90073,0.50944 2.07121,0.11998 3.0895,0.30414c3.54739,0.64156 7.08905,1.32398 10.60478,2.12096c7.83549,1.77622 16.241,6.74057 20.46522,13.58382c3.31103,5.36387 4.06606,12.00109 3.87379,18.14195c-0.06608,2.1104 -0.34904,4.23218 -0.59601,6.3245c-0.12748,1.08001 -1.33661,2.76355 -0.36028,3.24255c5.38169,2.64034 11.84964,1.90271 17.67498,3.31673c21.18343,5.14198 39.20368,18.49251 37.38476,41.96844c-2.47859,31.98992 -34.00324,42.9428 -61.43736,44.65079c-55.38079,3.44788 -112.32329,-8.63529 -167.50324,-4.55734c-8.14466,0.60191 -16.27779,1.35166 -24.4131,2.06891c-5.7288,0.50508 -11.47448,0.86738 -17.1789,1.59804c-9.58148,1.22725 -26.03294,6.51037 -34.86485,-1.11719c-1.43405,-0.90746 -2.76939,-1.9568 -3.98631,-3.1283c-4.72434,-4.54801 -7.66376,-10.93707 -7.66376,-18.01267c0,-3.13655 0.57762,-6.13819 1.63228,-8.90435c0.44467,-1.99787 1.0954,-3.89822 2.27397,-5.54877z" fill="#b1e5ff" stroke-width="0.5"/><text transform="translate(208.89785,151.405) scale(0.5,0.5)" font-size="40" xml:space="preserve" fill="#a866ff" stroke-width="1" font-family="Sans Serif" font-weight="normal" text-anchor="start"><tspan x="0" dy="0">吃屎数</tspan></text><text transform="translate(166.6152,183.93011) scale(0.5,0.5)" font-size="40" xml:space="preserve" fill="#a866ff" stroke-width="1" font-family="Sans Serif" font-weight="normal" text-anchor="start"><tspan x="0" dy="0">5000-100000</tspan></text><text transform="translate(196.70094,220.11431) scale(0.5,0.5)" font-size="40" xml:space="preserve" fill="#a866ff" stroke-width="1" font-family="Sans Serif" font-weight="normal" text-anchor="start"><tspan x="0" dy="0">钻石屎</tspan></text></g></g></svg>