<svg version="1.1" xmlns="http://www.w3.org/2000/svg" xmlns:xlink="http://www.w3.org/1999/xlink" width="473.51153" height="294.67162" viewBox="0,0,473.51153,294.67162"><g transform="translate(-11.82104,-38.51091)"><g data-paper-data="{&quot;isPaintingLayer&quot;:true}" fill-rule="nonzero" stroke="none" stroke-linecap="butt" stroke-linejoin="miter" stroke-miterlimit="10" stroke-dasharray="" stroke-dashoffset="0" style="mix-blend-mode: normal"><path d="M96,139.67752l-0.15576,-0.61332l0.15576,-0.993v-0.40454l0.39063,-3.90625l0.56327,-1.77027l0.28789,-1.83527l1.39754,-3.66855l0.18092,-0.36183l0.30476,-0.95783l0.41361,-0.47891l0.10071,-0.20143l0.66844,-1.05836l0.59849,-2.21443l4.91067,-4.24103l2.20766,-2.26898l0.81072,-0.3378l0.6647,-0.57406l3.01673,-0.95987l5.98941,-2.49559l1.58506,0.32079l0.23228,-0.03644l1.77027,-0.56327l3.90625,-0.39062h0.40454l0.993,-0.15576l0.61332,0.15576h42.98913v-0.98913l-0.15576,-0.61332l0.15576,-0.993v-0.40454l0.39063,-3.90625l0.36687,-1.15302l-0.08795,-0.43459l0.41008,-0.98419l0.16216,-1.03374l1.39754,-3.66855l0.18092,-0.36183l0.30476,-0.95783l0.41361,-0.47891l0.10071,-0.20143l0.68451,-1.08381l0.71303,-1.71128l3.54172,-3.446l3.446,-3.54172l0.99981,-0.41659l1.29794,-1.29794l3.03835,-2.48592l0.39315,-0.20336l1.74617,-1.50805l1.21324,-0.38603l-3.71324,-13.73897l3.90625,-14.45312l8.59375,-7.42187l8.59375,-2.73437l3.88833,-0.38883l0.62038,-0.15756l0.993,0.15576h0.40454l3.90625,0.39063l1.77027,0.56327l1.83527,0.28789l0.38939,0.14834l0.00506,0.00051l1.77027,0.56327l0.29394,0.04611h0.02954l3.90625,0.39063l1.77027,0.56327l1.83527,0.28789l1.925,0.73333l0.15867,0.02489h0.40454l3.90625,0.39063l1.77027,0.56327l1.83527,0.28789l0.38939,0.14834l0.00506,0.00051l1.77027,0.56327l0.29394,0.04611h1.02954l3.90625,0.39063l0.08302,0.02641l0.08711,0.00119l3.82932,0.86469l2.60422,0.86807l2.39633,0.23963l1.77027,0.56327l1.83527,0.28789l2.52499,0.9619l1.86947,0.18695l1.77027,0.56327l1.83527,0.28789l3.66855,1.39754l0.36183,0.18092l0.95783,0.30476l0.47891,0.41361l6.6123,3.30615l1.31448,0.43816l3.58227,1.60584l0.47126,0.34346l2.4939,0.67403l2.66514,3.08596l1.65776,1.20819l1.36017,2.28625l1.7388,2.01335l0.62197,1.95475l2.0848,3.50424l-0.1492,2.57907l0.17681,0.55569l0.39063,3.90625v2l-0.39062,3.90625l-1.31855,4.144l1.22096,0.19152l2.88092,1.09749l0.51354,0.05135l0.08302,0.02641l0.08711,0.00119l2.5764,0.58177h2.33636l0.61332,-0.15576l0.993,0.15576h0.40454l3.90625,0.39063l1.77027,0.56327l1.83527,0.28789l0.38939,0.14834l0.00506,0.00051l0.4218,0.13421l2.30108,0.16837l2.83227,1.46497l3.0386,0.96683l0.10396,0.08978l0.30173,0.06813l3,1l1.61784,0.72524l1.65681,0.63116l14.82636,7.41318l6.77138,2.53927l1.17637,0.58055l1.22588,0.467l18,9l0.8127,0.51328l0.86936,0.41007l2.64678,1.58807l0.39652,0.13217l1.61784,0.72524l1.65681,0.63116l2,1l1.08381,0.68451l1.71128,0.71303l3.446,3.54172l3.54172,3.446l0.71303,1.71128l0.5207,0.82444l1.16381,1.03652l0.93169,3.66855l0.46585,1.22285l0.16216,1.03374l0.41008,0.98419l-0.09536,0.47119l0.3151,1.2407l0.12747,0.1043l2,2l0.00437,0.00534l1.41171,1.21921l0.09615,0.35577l1.90385,1.64423l0.91252,3.37631l2.30053,4.44769l0.40779,5.57308l0.28542,1.05605l-0.1638,0.60606l0.29924,4.08957l-2.6524,4.61715l-1.38928,5.14035l-1.11298,0.96121l1.69575,0.53956l1.83527,0.28789l3.66855,1.39754l0.36183,0.18092l0.95783,0.30476l0.47891,0.41361l0.20143,0.10071l3.31916,2.09631l0.03522,0.03427l0.94854,0.39523l3.01673,0.95987l0.6647,0.57406l0.81072,0.3378l2.20766,2.26898l4.91067,4.24103l0.15698,0.58082l1.23954,1.54943l1.7741,1.82338l0.87697,1.38854l2.02225,2.47164l0.04002,0.07738l0.06075,0.06244l0.70034,1.10887l1.71297,1.71297l2.48592,3.03835l0.04002,0.07738l0.06075,0.06244l2.09631,3.31916l0.08282,0.16563l0.65025,0.56158l0.43466,1.60825l0.83227,1.66454l1.39754,3.66855l1.09055,6.95224l0.15123,0.55955l-0.04015,0.14857l0.19592,1.24898l-2.79508,11.00565l-0.93889,0.8362l-0.32804,1.21373l-8.59375,7.42188l-1.20474,0.38332l-0.11492,0.10235l-0.56811,0.11498l-4.58495,1.45885c4.52516,2.46319 9.54707,3.82052 14.25749,5.85358c8.81651,3.80528 16.97784,9.68637 24.58274,15.41066c5.03435,3.78941 10.40295,9.28987 13.66719,14.53391c4.52478,7.26913 4.65897,19.82613 2.22353,27.77914c-0.82518,2.69464 -2.13889,4.33201 -3.06598,6.72691c-0.27603,0.71306 -0.10213,1.63281 -0.59849,2.21443c-2.08731,2.44584 -4.68482,4.40834 -7.11833,6.51001c-7.60324,6.56643 -30.9124,4.12489 -36.97542,4.03686c-2.24227,-0.03255 -4.41223,-0.90638 -6.65277,-1c-15.63288,-0.65319 -31.34558,-1.34733 -46.88276,-3.25126c-10.14899,-1.24366 -20.32413,-3.49821 -30.53353,-3.74874c-7.64135,-0.18751 -15.28752,0.05946 -22.93094,0c-3.80451,-0.0296 -7.36098,-1.79687 -11.07764,-2c-5.96522,-0.32602 -11.94876,0.07888 -17.92236,0c-1.32748,-0.01753 -2.6178,-0.26526 -3.89251,-0.58142c-1.49074,0.33108 -3.01161,0.73718 -4.50503,0.73718c-4.87761,0 -9.75442,-0.17148 -14.632,-0.15576c-5.74028,0.01849 -11.58549,2.15576 -17.368,2.15576c-10.07456,0 -21.13035,0 -31.20492,0c-4.34968,0 -9.99421,-1.20128 -14.30324,-2.43868c-1.74595,-0.50137 -3.35544,-1.71239 -5.17195,-1.71708c-2.64658,-0.00684 -8.73425,0.30351 -11.99873,-0.41823c-2.01345,-0.44515 -3.92488,-1.41968 -5.98057,-1.58177c-4.83789,-0.38147 -9.86937,-0.63708 -14.98719,-0.80517c-3.61961,0.41875 -7.2456,0.79012 -10.87823,0.80517c-2.06872,0.00857 -3.98131,1.13518 -6.00127,1.58177c-5.01219,1.10814 -14.57386,2.40047 -20.07637,2.41823c-19.33323,0.0624 -38.66705,0.12199 -58,0c-3.45998,-0.02183 -6.78678,-1.93503 -10.05694,-2c-11.31212,-0.22474 -22.62931,0.11676 -33.94306,0c-4.46633,-0.04609 -11.15498,-1.05786 -14.45312,-3.90625c-2.36917,-2.04611 -4.59452,-4.27145 -6.64062,-6.64062c-5.44696,-6.307 -5.44696,-24.59925 0,-30.90625c5.57009,-6.44958 11.35088,-8.17481 18.04779,-12.85625c1.7118,-1.19663 3.38119,-2.44659 5.02873,-3.72399l-2.38595,-0.60596l-1.55137,-1.74189l-7.13919,-6.16566l-0.71794,-2.65637l-0.54899,-0.61641l-1.13993,-5.6326l-1.49939,-5.54774l0.21537,-0.79685l-0.54582,-2.69701l3.62811,-8.70748l0.60859,-2.25179l5.53138,-4.7771l1.06286,-1.03414l0.50078,-0.31628l1.49872,-1.29435l1.10974,-0.3531l0.20992,-0.13258l2,-1l1.04733,-0.39898l0.49369,-0.40393l0.07738,-0.04002l0.06244,-0.06075l3.31916,-2.09631l0.60787,-0.30394l2.64523,-1.76349l1.24957,-1.24957l3.03835,-2.48592l0.07738,-0.04002l0.06244,-0.06075l3.31916,-2.09631l0.37136,-0.18568l0.13131,-0.13131l1.37219,-1.1227l1.30548,-1.19963l2.57864,-1.93398l1.74369,-1.74369l1.9066,-1.55994l0.76096,-0.62507l0.04697,-0.11274l0.72041,-0.70094l0.24273,-0.32363l2.65625,-2.89062l1.51277,-1.07825l1.33147,-1.29549l1.10887,-0.70034l1.71297,-1.71297l3.03835,-2.48592l0.07738,-0.04002l0.06244,-0.06075l3.31916,-2.09631l0.86776,-0.43388l1.67326,-1.36903l0.07738,-0.04002l0.06244,-0.06075l3.31916,-2.09631l4.20143,-2.10071l0.47891,-0.41361l0.95783,-0.30476l0.36183,-0.18092l3.66855,-1.39754l1.83527,-0.28789l1.77027,-0.56327l0.91857,-0.09186l-2.17591,-2.65945l-0.20336,-0.39315l-1.50805,-1.74617l-0.96683,-3.0386l-1.46497,-2.83227l-0.16837,-2.30108l-0.13421,-0.4218l-0.39062,-3.90625v-2.84467l-0.13544,-1.85096l0.13544,-0.23576v-0.05774l-0.15576,-0.61332l0.15576,-0.993v-0.40454l0.39063,-3.90625l0.56327,-1.77027l0.04611,-0.29394z" fill="#9e7200" stroke-width="0.5"/><text transform="translate(160.55709,178.06988) scale(1.05149,1.05149)" font-size="40" xml:space="preserve" fill="#9966ff" fill-rule="nonzero" stroke="none" stroke-width="1" stroke-linecap="butt" stroke-linejoin="miter" stroke-miterlimit="10" stroke-dasharray="" stroke-dashoffset="0" font-family="Sans Serif" font-weight="normal" text-anchor="start" style="mix-blend-mode: normal"><tspan x="0" dy="0">吃屎数0-20</tspan></text><text transform="translate(165.2232,234.41999) scale(1.22113,1.22113)" font-size="40" xml:space="preserve" fill="#ff0000" fill-rule="nonzero" stroke="none" stroke-width="1" stroke-linecap="butt" stroke-linejoin="miter" stroke-miterlimit="10" stroke-dasharray="" stroke-dashoffset="0" font-family="&quot;Minecraft&quot;, Pixel" font-weight="normal" text-anchor="start" style="mix-blend-mode: normal"><tspan x="0" dy="0">原味屎</tspan></text></g></g></svg>