<svg version="1.1" xmlns="http://www.w3.org/2000/svg" xmlns:xlink="http://www.w3.org/1999/xlink" width="332.90877" height="294.48153" viewBox="0,0,332.90877,294.48153"><g transform="translate(-70.65581,-24.53988)"><g stroke="none" stroke-miterlimit="10"><path d="M83.15581,271.99913c1.04351,-0.60117 2.15448,-1.03995 3.3056,-1.38004c2.84592,-1.12613 5.94789,-1.74496 9.1944,-1.74496c0.13145,0 0.26265,0.00101 0.39362,0.00304c0.47351,0.00731 0.94383,0.02778 1.41061,0.06107c0.01458,-0.02444 0.02683,-0.05226 0.03654,-0.08378c0.86099,-2.79598 0.19461,-6.67584 0.91395,-9.33742c1.23802,-4.58068 7.40989,-10.46356 11.46934,-12.9694c1.03728,-0.6403 4.52795,-1.15306 5.32606,-1.9799c0.45411,-0.47046 0.14154,-1.30022 0.19519,-1.9519c0.23096,-2.80529 0.71943,-5.2712 1.46076,-8.00486c1.64563,-6.06825 5.78811,-12.42959 10.09312,-16.95257c5.42351,-5.69812 11.63588,-9.73998 19.46178,-11.31335c1.2839,-0.25813 2.86877,-0.43136 4.24148,-0.57278c1.55356,-0.16005 3.10881,-0.30587 4.66611,-0.42419c0.27248,-0.0207 0.75003,0.2716 0.81975,0.00739c0.26401,-1.00057 -0.3816,-2.55644 -0.3816,-3.65585c0,-3.77642 0.09507,-7.55226 0.15576,-11.3282c0.1283,-7.98202 2.9319,-17.95532 6.70648,-25.06209c2.22175,-4.1831 6.00538,-8.93151 10.45962,-11.23542c0.87457,-0.45237 4.52833,-2.13793 5.87087,-2.4318c0.97064,-0.21246 2.87242,0.66291 2.96293,-0.32658c0.82458,-9.01543 -2.93985,-26.64314 3.00077,-36.22444c2.74589,-4.42869 6.94298,-10.13748 11.92015,-12.34434c0.24704,-0.10954 9.72947,-3.0687 9.73283,-3.10032c0.51572,-4.85988 -0.38126,-9.99629 0.21575,-14.9872c0.42983,-3.59332 3.00172,-6.84418 3.00291,-10.37711c0.00198,-5.89005 0.00198,-11.7801 0,-17.67015c-0.00126,-3.73747 -0.9738,-7.21742 -0.03357,-10.97835c3.14044,-12.56178 10.1847,-21.09375 24.60938,-21.09375c4.99056,0 10.1201,1.43024 14.45313,3.90625c8.40068,4.80039 10.84117,16.27828 10.97107,25.33566c0.11152,7.77604 0.11152,15.55448 0,23.33053c-0.01953,1.36196 -1.66938,3.52676 -0.41807,4.06487c7.51016,3.22967 11.83226,4.42338 17.2972,10.75121c1.48513,1.71963 2.87721,7.22928 3.29921,9.13195c2.58979,11.67653 2.81254,18.98657 -0.30538,30.63203c-0.0967,0.36118 0.71562,0.21765 1.0689,0.34011c0.86408,0.29951 1.79928,0.41722 2.61441,0.83186c0.92845,0.47228 1.63874,1.28908 2.5,1.875c4.52288,3.07698 8.23103,6.85526 10.69272,11.74191c3.22093,6.3938 5.30315,16.51855 5.67015,23.52898c0.14356,2.7422 0.05434,5.39434 -0.39062,8.14816c-0.08571,0.53043 -0.70034,1.04216 -0.48875,1.53606c0.67085,1.56591 3.02647,1.56587 4.51701,2.39073c3.02377,1.67335 5.62172,4.7055 7.746,7.36085c5.5649,6.95612 3.72805,11.79929 6.67232,18.11185c0.16799,0.36017 0.77329,0.18526 1.16388,0.25864c2.76957,0.52033 5.58648,1.08419 8.22596,2.10533c6.29082,2.43373 10.49739,5.59603 15.1784,11.01423c0.77944,0.90219 1.18004,2.74974 1.61753,3.88206c0.85889,2.223 2.27707,4.26371 2.74979,6.59951c0.18007,0.88975 -0.94614,7.67501 -0.66037,8.57261c0.11823,0.37135 2.69099,1.15297 2.90422,1.26326c4.10508,2.12332 7.37054,4.56232 10.6775,7.7044c2.24449,2.13259 4.49508,5.36673 5.74263,8.28437c0.36306,0.84908 1.15475,4.73581 1.8804,5.08217c1.46593,0.6997 5.0366,0.53146 6.72489,0.61098c6.71372,0.3162 14.74377,2.09298 19.12901,7.23402c2.45635,2.8797 5.04735,5.80506 6.53709,9.28457c0.82162,1.91901 -0.10889,4.18635 0.11889,6.26139c0.22778,2.07504 1.62799,4.08652 1.24223,6.13807c-4.22279,22.45733 -27.81877,23.13089 -46.11584,23.20291c-12.58425,0.04953 -25.16872,0.02621 -37.75303,0c-7.02319,-0.01463 -14.06264,-1.24492 -21.09585,-1.27257c-29.81557,-0.11723 -59.63184,-0.12074 -89.4474,0c-20.14675,0.08159 -40.3044,2.36639 -60.44824,2.95634c-6.16002,0.18041 -12.81158,-0.14345 -18.60941,0.013c-8.19814,0.22121 -16.36683,1.07744 -24.54898,1.63496c-1.84895,0.12599 -7.42059,0.96719 -9.82319,0.48599c-4.16768,0 -8.09717,-1.01982 -11.55253,-2.82353c-7.99191,-4.1718 -13.44747,-12.53703 -13.44747,-22.17647c0,-4.98998 1.46195,-9.6385 3.98091,-13.54062c1.54571,-3.10186 3.94195,-5.69746 8.51909,-8.33438z" fill="#fcff00" stroke-width="0.5"/><text transform="translate(192.22873,173.35945) scale(0.5,0.5)" font-size="40" xml:space="preserve" fill="#a866ff" stroke-width="1" font-family="Sans Serif" font-weight="normal" text-anchor="start"><tspan x="0" dy="0">吃屎数</tspan></text><text transform="translate(173.93335,199.37955) scale(0.5,0.5)" font-size="40" xml:space="preserve" fill="#a866ff" stroke-width="1" font-family="Sans Serif" font-weight="normal" text-anchor="start"><tspan x="0" dy="0">100000-100W</tspan></text><text transform="translate(201.5797,227.0259) scale(0.5,0.5)" font-size="40" xml:space="preserve" fill="#a866ff" stroke-width="1" font-family="Sans Serif" font-weight="normal" text-anchor="start"><tspan x="0" dy="0">黄金巨屎</tspan></text></g></g></svg>