<svg version="1.1" xmlns="http://www.w3.org/2000/svg" xmlns:xlink="http://www.w3.org/1999/xlink" width="91.001" height="54.672" viewBox="0,0,91.001,54.672"><defs><linearGradient x1="195.1699" y1="176.1562" x2="286.1699" y2="176.1562" gradientUnits="userSpaceOnUse" id="color-1"><stop offset="0.012" stop-color="#a7a9ac"/><stop offset="1" stop-color="#414042"/></linearGradient><linearGradient x1="198.583" y1="176.1553" x2="282.7559" y2="176.1553" gradientUnits="userSpaceOnUse" id="color-2"><stop offset="0" stop-color="#d1d2d3"/><stop offset="1" stop-color="#a4a5a8"/></linearGradient></defs><g transform="translate(-195.169,-148.82)"><g stroke="none" stroke-miterlimit="10"><path d="M286.17,194.887c0,4.752 -3.854,8.605 -8.605,8.605h-73.792c-4.752,0 -8.604,-3.854 -8.604,-8.605v-37.463c0,-4.752 3.852,-8.604 8.604,-8.604h73.791c4.754,0 8.605,3.852 8.605,8.604v37.463z" fill="url(#color-1)"/><path d="M282.755,157.424v37.462c0,2.862 -2.327,5.19 -5.191,5.19h-73.791c-2.861,0 -5.19,-2.328 -5.19,-5.19v-37.463c0,-2.862 2.329,-5.19 5.19,-5.19h73.791c2.864,0 5.191,2.329 5.191,5.191z" fill="url(#color-2)"/><text transform="translate(218.107,158.72277) scale(0.27578,0.19452)" font-size="40" xml:space="preserve" fill="#d758ff" font-family="&quot;Minecraft&quot;, Pixel" font-weight="normal" text-anchor="start"><tspan x="0" dy="0">更新日志</tspan></text><text transform="translate(199.607,165.70229) scale(0.12357,0.17226)" font-size="40" xml:space="preserve" fill="#ffef00" font-family="&quot;Minecraft&quot;, Pixel" font-weight="normal" text-anchor="start"><tspan x="0" dy="0">alpha v0.16.05 rv00 25/03/11</tspan></text><text transform="translate(200.0205,174.20383) scale(0.18839,0.18839)" font-size="40" xml:space="preserve" fill="#ff0000" font-family="&quot;Minecraft&quot;, Pixel" font-weight="normal" text-anchor="start"><tspan x="0" dy="0">针对浏览器删减</tspan></text><text transform="translate(261.357,197.76143) scale(0.08533,0.08533)" font-size="40" xml:space="preserve" fill="#ff0000" font-family="&quot;Minecraft&quot;, Pixel" font-weight="normal" text-anchor="start"><tspan x="0" dy="0">2025更新3</tspan></text></g></g></svg>