<svg version="1.1" xmlns="http://www.w3.org/2000/svg" xmlns:xlink="http://www.w3.org/1999/xlink" width="489" height="48.01299" viewBox="0,0,489,48.01299"><g transform="translate(5.22796,-125.91666)"><g stroke-miterlimit="10"><path d="M-2,154.66666c0,1.00801 -0.59658,1.87669 -1.45593,2.27221c0.54789,-1.15781 0.87999,-2.43767 0.94439,-3.78768c0.32093,0.42045 0.51153,0.9457 0.51153,1.51547z" fill="#000000" stroke="none" stroke-width="0.5" stroke-linecap="butt"/><path d="M6.49979,166.17344l465.00042,-0.01357" fill="none" stroke="#000000" stroke-width="15" stroke-linecap="round"/><text transform="translate(7.27204,171.08177) scale(0.20833,0.27605)" font-size="40" xml:space="preserve" fill="#ffffff" stroke="none" stroke-width="1" stroke-linecap="butt" font-family="&quot;Minecraft&quot;, Pixel" font-weight="normal" text-anchor="start"><tspan x="0" dy="0">jinitaimeishiyou.github.io 鬼抓人4.1</tspan></text><text transform="translate(204.77204,170.7177) scale(0.25,0.25)" font-size="40" xml:space="preserve" fill="#ff0000" stroke="none" stroke-width="1" stroke-linecap="butt" font-family="&quot;Minecraft&quot;, Pixel" font-weight="normal" text-anchor="start"><tspan x="0" dy="0">你当前正在访问鬼抓人网站</tspan></text><text transform="translate(44.27204,143.83333) scale(0.5,0.5)" font-size="40" xml:space="preserve" fill="none" stroke="none" stroke-width="1" stroke-linecap="butt" font-family="&quot;Minecraft&quot;, Pixel" font-weight="normal" text-anchor="start"><tspan x="0" dy="0">加载游戏ken</tspan></text><path d="M2.27204,153.33333l474,-1" fill="none" stroke="#000000" stroke-width="15" stroke-linecap="round"/><text transform="translate(178.27204,155.33333) scale(0.5,0.5)" font-size="40" xml:space="preserve" fill="none" stroke="none" stroke-width="1" stroke-linecap="butt" font-family="&quot;Minecraft&quot;, Pixel" font-weight="normal" text-anchor="start"><tspan x="0" dy="0">1</tspan></text><text transform="translate(14.77204,158.03266) scale(0.30938,0.30938)" font-size="40" xml:space="preserve" fill="#1000ff" stroke="none" stroke-width="1" stroke-linecap="butt" font-family="Sans Serif" font-weight="normal" text-anchor="start"><tspan x="0" dy="0">游戏加载可能需要一段时间</tspan></text><text transform="translate(208.27204,155.13904) scale(0.25682,0.25682)" font-size="40" xml:space="preserve" fill="#1000ff" stroke="none" stroke-width="1" stroke-linecap="butt" font-family="Sans Serif" font-weight="normal" text-anchor="start"><tspan x="0" dy="0">点击绿色小旗子开始游戏</tspan></text></g></g></svg>