<svg version="1.1" xmlns="http://www.w3.org/2000/svg" xmlns:xlink="http://www.w3.org/1999/xlink" width="435.0078" height="313.15679" viewBox="0,0,435.0078,313.15679"><g transform="translate(-19.31044,-21.04931)"><g stroke="none" stroke-miterlimit="10"><path d="M67.86604,255.72394c11.08787,-14.00838 32.61972,-9.71484 46.00591,-19.94887c14.16518,-10.82958 13.75197,-24.43622 20.53983,-38.01193c3.01719,-6.03438 6.42689,-12.33907 13.64289,-14.57502c14.21852,-4.40574 28.97518,2.08225 33.5988,16.26978c3.21697,9.87125 -1.55667,19.25068 -4.77014,28.20298c-8.54117,23.7946 -22.84767,44.01966 -45.56066,56.08594c-6.18479,3.28567 -13.37904,4.96473 -20.07223,6.94779c-4.19578,1.24312 -11.18147,3.64066 -17.4616,4.92444c-1.45625,0.37111 -2.9636,0.61438 -4.50938,0.71715c-2.45804,0.253 -4.62406,0.19502 -6.21942,-0.35473c-1.3852,-0.47733 -3.17335,-0.89052 -4.94004,-1.44794c-9.10835,-3.73367 -15.52384,-12.6884 -15.52384,-23.14155c0,-0.72713 0.03104,-1.447 0.09187,-2.15838c0.04509,-2.12976 0.03151,-3.57408 1.23339,-5.89439c0.56395,-1.65848 1.29727,-3.23867 2.17936,-4.71995c0.50108,-1.02155 1.06073,-2.00525 1.76524,-2.89533zM62.59617,271.39198z" fill="#695c2f" stroke-width="0.5"/><path d="M110.94678,100.51269c0.57692,-1.25851 1.33113,-2.41181 2.19247,-3.49683c1.72752,-2.54276 3.91142,-4.75042 6.43396,-6.50523c1.98982,-1.92537 6.15598,-4.56072 9.01816,-6.06559c34.38543,-18.07915 73.55304,-26.6547 112.20552,-27.20676c13.2004,-0.18854 26.52812,-0.3702 39.73604,0.04215c3.55649,0.11103 7.91272,-0.09204 11.44274,1.0286c6.43039,2.04139 13.18887,4.42845 16.5205,11.2086c6.56468,13.3597 2.4521,28.94623 -10.8431,35.72132c-1.51444,0.77174 -2.99327,1.29057 -4.45639,1.6324c1.16586,0.59889 2.22986,1.29595 3.22605,2.07628c4.02495,2.52688 7.27885,6.16883 9.32858,10.49271c1.78813,2.25501 2.41566,6.49088 3.19442,9.11075c1.83847,6.1849 3.6535,12.37817 5.63604,18.5184c7.86567,24.36131 21.92716,54.88525 9.32577,80.45062c-5.03029,10.20532 -9.19501,14.55867 -17.40778,23.57632c-5.87589,6.45175 -18.75206,15.44181 -22.04921,18.09771c-11.16292,8.99188 -24.4174,26.19363 -40.8769,25.23266c-7.06869,-0.4127 -17.25838,-4.20944 -20.96878,-10.70264c-4.02329,-7.04075 -4.87417,-21.15669 0,-28.90625c2.4579,-3.90787 6.93822,-6.31482 11.13813,-8.23145c3.80834,-1.73794 6.67095,-5.916 9.81975,-8.54171c8.87177,-7.39796 18.35175,-14.06888 26.97681,-21.75306c2.87256,-2.5592 6.34269,-5.1479 7.41863,-8.84161c2.28682,-7.85066 -2.0053,-18.30653 -4.2371,-25.25639c-4.46846,-13.91491 -9.77199,-27.47379 -13.32322,-41.67872c-1.44449,-3.16125 -2.24946,-6.67597 -2.24946,-10.3787c0,-2.78436 0.45518,-5.46241 1.2952,-7.96379c2.03349,-6.31529 6.36371,-11.88988 12.30331,-15.01895c-10.0787,-0.05034 -20.15793,-0.02655 -30.23639,0.04911c-21.10769,0.15847 -42.80418,3.24703 -62.82706,10.2055c-7.4155,2.57708 -14.59963,5.77983 -21.8406,8.81287c-2.96402,1.24155 -5.35512,3.58953 -8.24215,5.00089c-2.91052,2.13413 -6.29993,3.65361 -9.97702,4.36722c-1.24474,0.33183 -2.4167,0.50882 -3.38298,0.41957c-0.46594,0.02586 -0.93528,0.03896 -1.40768,0.03896c-0.90533,0 -1.79943,-0.04812 -2.67986,-0.14195c-12.54697,-1.33713 -22.32014,-11.95626 -22.32014,-24.85805c0,-0.75327 0.03331,-1.49876 0.09855,-2.23507c0.15634,-1.76462 0.49603,-3.47654 0.99988,-5.1166c0.24198,-1.09456 0.54921,-2.16648 1.01532,-3.18327z" fill="#695c2f" stroke-width="0.5"/><path d="M389.01713,205.45002c9.47448,-11.8512 27.56632,-11.16633 37.29125,-1.71701c1.44844,1.40739 2.64703,3.06276 3.6521,4.85481c1.46485,2.35804 2.54817,4.97781 3.1637,7.77306c0.20101,0.67437 0.38815,1.34704 0.5637,2.01346c3.44519,13.07839 5.48581,26.04749 8.0525,39.3716c2.04131,10.59677 4.57176,20.60764 7.37171,30.91987c1.50166,5.53064 4.74248,11.19329 5.05224,16.97544c0.36091,6.73699 0.51429,13.90299 -4.65253,19.41426c-10.18077,10.85949 -26.2154,12.51598 -37.24896,2.46986c-7.57966,-6.90133 -9.12417,-19.13414 -12.06798,-28.49471c-7.17658,-22.81968 -8.80583,-46.88779 -15.36528,-69.84585c-0.72826,-2.34527 -1.12053,-4.83844 -1.12053,-7.42323c0,-2.70153 0.4285,-5.30297 1.22125,-7.74007c0.76538,-3.03537 1.9822,-5.93891 4.08682,-8.57149z" fill="#695c2f" stroke-width="0.5"/><path d="M399.90357,121.24577c-3.50487,12.70548 0.87511,28.12437 -9.4848,38.62428c-13.53765,13.72059 -36.9555,7.86612 -42.44373,-10.61093c-1.69397,-5.70303 -0.02093,-14.96986 0.71495,-21.20344c1.19525,-10.12492 2.99097,-18.95252 5.78886,-28.72545c0.79507,-2.77714 2.19046,-7.77374 4.36886,-9.88709c2.93479,-2.84714 5.9644,-5.59503 8.97037,-8.36692c3.69987,-3.41176 8.97769,-4.06977 14.3625,-2.9823c7.89859,0.72572 14.73362,5.12562 18.78075,11.47537c2.471,3.87687 3.90272,8.4806 3.90272,13.41873c0,3.80762 -0.85122,7.41643 -2.37375,10.6465c-0.90206,2.53369 -1.88106,5.0532 -2.58672,7.61126z" fill="#695c2f" stroke-width="0.5"/><path d="M28.69193,65.58853c10.64483,-11.60166 27.05667,-18.02407 40.87369,-24.34586c19.51864,-8.93049 47.50805,-21.41929 69.35771,-20.09632c20.08876,1.21635 31.62064,21.03106 21.09375,39.45313c-6.50451,11.38289 -19.91743,9.45369 -30.46835,11.77632c-19.66955,4.32997 -38.17525,13.24935 -56.09305,22.18406c-8.16191,4.06994 -15.3517,15.01941 -25.18331,14.9421c-1.1499,0.16202 -2.32494,0.24581 -3.51954,0.24581c-0.41486,0 -0.82736,-0.01011 -1.23727,-0.03008c-11.7571,-0.573 -21.38111,-9.26777 -23.38091,-20.59321c-1.35878,-1.6592 -0.70102,-2.45923 -0.38143,-4.51884c0.01608,-2.88896 0.52218,-5.66187 1.43941,-8.23985c0.38087,-1.33632 0.89473,-2.50245 1.72328,-3.79891c1.15288,-1.80395 2.91505,-3.86022 5.77601,-6.97835z" fill="#695c2f" stroke-width="0.5"/><text transform="translate(134.49664,97.33198) scale(0.5,0.5)" font-size="40" xml:space="preserve" fill="#a866ff" stroke-width="1" font-family="Sans Serif" font-weight="normal" text-anchor="start"><tspan x="0" dy="0">吃屎数100W-???</tspan></text><text transform="translate(269.06933,152.62469) scale(0.5,0.5)" font-size="40" xml:space="preserve" fill="#a866ff" stroke-width="1" font-family="Sans Serif" font-weight="normal" text-anchor="start"><tspan x="0" dy="0">狗屎</tspan></text></g></g></svg>