<svg version="1.1" xmlns="http://www.w3.org/2000/svg" xmlns:xlink="http://www.w3.org/1999/xlink" width="136.53766" height="87.91006" viewBox="0,0,136.53766,87.91006"><g transform="translate(-166.37196,-135.3889)"><g stroke="none" stroke-miterlimit="10"><path d="M192.125,216.66666c-28.76043,0 -26.45409,-31.66078 -25,-51c0,-4.4524 1.16392,-8.63295 3.2041,-12.25398c2.0241,-4.39609 5.03968,-8.21731 9.18734,-9.3383c3.70159,-2.16617 8.01009,-3.40772 12.60856,-3.40772c4.43182,0 8.59429,1.15319 12.20373,3.17586c0.75944,-0.57794 1.56491,-1.11915 2.41191,-1.62567c3.17947,-2.24055 6.90486,-3.75835 10.93721,-4.31448c21.72353,-5.49321 53.25347,-0.2761 59.44714,-0.23572c14.19212,0.09254 21.45355,8.47045 24.60938,21.09375c2.42353,9.69412 0.33918,19.98252 0.39063,29.97486c0.01823,3.54027 0.41501,8.07755 -0.6932,11.56052c-2.97375,9.34609 -12.33158,18.70391 -21.67767,21.67767c-7.32571,2.33091 -19.61506,1.02603 -26.53538,0.30258c-1.78188,-0.18628 -5.10772,-1.59704 -7.06421,-1.60937c-4.43073,-0.02794 -8.57761,0.34173 -12.93579,-0.39062c-1.79442,-0.30154 -3.83411,-1.452 -5.59587,-1.60937c-7.6967,-0.68752 -16.3139,-0.24819 -22.64701,-4.90418c-3.37581,1.84662 -7.59448,2.90418 -12.85087,2.90418z" fill="#0984bc" stroke-width="0.5"/><text transform="translate(211.5783,169.39601) scale(0.22102,0.22102)" font-size="40" xml:space="preserve" fill="#ffffff" stroke-width="1" font-family="&quot;Minecraft&quot;, Pixel" font-weight="normal" text-anchor="start"><tspan x="0" dy="0">alphaver</tspan></text><text transform="translate(214.2033,178.84148) scale(0.2375,0.2375)" font-size="40" xml:space="preserve" fill="#ff06b5" stroke-width="1" font-family="&quot;Minecraft&quot;, Pixel" font-weight="normal" text-anchor="start"><tspan x="0" dy="0">0.20.01</tspan></text><text transform="translate(245.5783,179.08351) scale(0.5,0.44312)" font-size="40" xml:space="preserve" fill="#ff06b5" stroke-width="1" font-family="&quot;Minecraft&quot;, Pixel" font-weight="normal" text-anchor="start"><tspan x="0" dy="0">.05</tspan></text></g></g></svg>