<svg version="1.1" xmlns="http://www.w3.org/2000/svg" xmlns:xlink="http://www.w3.org/1999/xlink" width="336.82074" height="285.40655" viewBox="0,0,336.82074,285.40655"><g transform="translate(-60.47524,-36.41724)"><g stroke="none" stroke-miterlimit="10"><path d="M82.41735,263.75026c0.8208,-0.12651 10.58345,-0.32736 10.68684,-0.39062c0.93764,-0.57383 -1.50562,-2.96003 -2.24237,-5.27553c-0.27689,-0.87022 -0.19265,-1.81631 -0.30258,-2.72288c-0.92292,-7.61092 -0.86051,-15.819 2.73438,-22.76912c4.06661,-7.86212 13.81031,-14.29142 22.1583,-16.90896c2.04149,-0.64012 11.94907,-2.83407 13.94468,-4.37145c0.29345,-0.22607 -1.63692,-3.39219 -1.80496,-3.82126c-0.93909,-2.39785 -1.73171,-4.76503 -2.2487,-7.27409c-1.73907,-8.44017 -1.07684,-17.41122 2.31018,-25.31427c5.66729,-13.22368 19.08028,-21.14409 32.77927,-24.05511c3.68299,-0.78263 10.29936,0.39269 12.99301,-0.74644c1.14701,-0.48507 -0.93339,-2.30941 -1.37597,-3.47348c-0.86093,-2.26442 -1.76763,-4.63737 -2.23477,-7.03389c-1.28083,-6.57095 -1.10312,-13.41755 0.53648,-19.90776c1.83113,-7.24834 7.26134,-13.73853 13.04696,-18.0423c3.0031,-2.23393 6.8271,-3.07178 10.27307,-4.53274c0.59996,-0.25436 1.83819,0.02755 1.85273,-0.62394c0.43521,-19.49501 -8.46085,-60.06918 24.84419,-60.06918c4.99056,0 10.1201,1.43024 14.45313,3.90625c13.81017,7.89153 9.38723,25.70553 10.54688,37.89698c0.00422,0.04433 2.64804,0.63212 3.0776,0.72943c3.20296,0.72555 5.99735,0.72155 9.0973,2.01778c7.22252,3.02007 14.33423,8.78212 16.67607,16.67607c2.1378,7.20616 1.5972,19.85284 -2.28258,26.32807c-0.96206,1.60564 -2.85982,3.06654 -3.4245,4.8488c-0.19106,0.60303 1.25047,0.21365 1.85534,0.39881c3.12143,0.95554 6.23078,1.95079 9.33221,2.96934c7.96501,2.61582 18.07526,6.79814 23.87928,13.28499c5.9243,6.62128 8.69818,14.37225 8.38733,23.26389c-0.08706,2.49015 -0.44347,5.00928 -0.90967,7.44805c-0.27075,1.41633 -0.54855,2.83146 -0.84838,4.24191c-0.04802,0.22592 -0.54886,2.09477 -0.50043,2.11839c10.97629,5.35464 23.24327,8.17054 31.73841,17.73461c5.97336,6.72498 9.18785,14.92489 9.18785,24.01932c0,4.39521 -0.22003,7.20783 -1.48578,11.38832c-0.37816,1.24897 -0.65738,2.53794 -1.18701,3.73059c-0.04616,0.10395 -0.21258,0.29307 -0.10346,0.32516c4.18515,1.23079 9.74666,0.63308 14.05841,1.47362c18.13871,3.536 30.84314,12.94063 34.67231,31.33991c4.89808,23.5354 -16.4697,44.23811 -38.26957,48.47109c-13.13821,2.55111 -26.61909,-1.77676 -39.56161,-2.63796c-12.3389,-0.82103 -12.72421,-1.07212 -25.78527,-1.21333c-13.26827,-0.14346 -26.54103,-0.29681 -39.79756,-0.87291c-13.21378,-0.57425 -29.8606,-0.47924 -43.20252,-1.82514c-18.63889,-1.88024 -35.927,-1.68724 -55.08751,-1.54386c-18.81539,0.1408 -49.45547,0.29192 -64.79897,0.42419c-1.49421,0.27855 -3.03518,0.42419 -4.61015,0.42419c-1.16287,0 -2.3072,-0.0794 -3.42785,-0.23306c-12.18525,-1.67087 -21.57215,-12.12269 -21.57215,-24.76694c0,-9.61162 5.42411,-17.95636 13.37833,-22.14024c2.57952,-1.41672 5.45677,-2.41443 8.5638,-2.89333z" fill="#ff0000" stroke-width="0.5"/><text transform="translate(191.82217,166.0413) scale(0.5,0.5)" font-size="40" xml:space="preserve" fill="#66ff94" stroke-width="1" font-family="Sans Serif" font-weight="normal" text-anchor="start"><tspan x="0" dy="0">吃屎数</tspan></text><text transform="translate(169.46115,192.06139) scale(0.5,0.5)" font-size="40" xml:space="preserve" fill="#66ff94" stroke-width="1" font-family="Sans Serif" font-weight="normal" text-anchor="start"><tspan x="0" dy="0">1000-5000</tspan></text><text transform="translate(180.03181,218.89462) scale(0.5,0.5)" font-size="40" xml:space="preserve" fill="#66ff94" stroke-width="1" font-family="Sans Serif" font-weight="normal" text-anchor="start"><tspan x="0" dy="0">耀眼红屎</tspan></text></g></g></svg>