<svg version="1.1" xmlns="http://www.w3.org/2000/svg" xmlns:xlink="http://www.w3.org/1999/xlink" width="2082.0008" height="491.05599" viewBox="0,0,2082.0008,491.05599"><g transform="translate(565.45462,64.73707)"><g stroke="none" stroke-miterlimit="10"><path d="M577.5,400.66666c0,4.99056 -1.43024,10.1201 -3.90625,14.45313c-3.92078,6.86137 -13.60179,10.50313 -21.09375,10.54688c-21.59337,0.12607 -43.23993,1.44114 -64.78118,-0.06353c-18.52433,-1.29394 -37.02119,-3.02872 -55.56683,-3.96906c-27.24795,-1.38158 -54.88374,-1.41581 -82.12004,-3.01055c-60.61721,-3.54924 -143.33685,-8.88192 -204.02508,-10.69649c-3.25394,-0.09729 -6.92286,1.33442 -10.34113,1.64565c-18.96107,1.72637 -22.99033,2.16592 -40.16574,2.09399c-35.99455,-0.15076 -71.90092,-4.29509 -107.73162,-7.05535c-18.57097,-1.43064 -36.94614,-2.03845 -55.34602,-4.94465c-3.51099,-0.55455 -7.42822,0.00299 -10.88958,-1.09835c-14.29483,-4.54836 -19.22368,-20.34983 -15.5514,-33.93728c0.26724,-0.98877 1.39362,-1.52761 1.88648,-2.42548c3.4482,-6.28176 9.60926,-10.30541 16.72923,-12.05341c3.0261,-0.74293 6.70341,-1.4686 9.9029,-1.48548c3.04514,-0.01607 6.09013,-0.01826 9.13496,-0.00755c2.26804,-2.60449 5.2145,-4.71468 8.44021,-6.23512c0.00423,-0.00218 0.00846,-0.00435 0.01269,-0.00653c-8.7411,-0.67327 -22.25333,-1.80136 -30.38929,-3.04152c-23.79661,-3.62731 -47.50153,-7.91227 -71.38591,-10.90771c-8.69779,-1.09083 -17.416,-2.03259 -26.14813,-2.80159c-6.63532,-0.58434 -11.82922,0.61859 -18.16454,-3.125c-12.84669,-7.59122 -15.979,-23.40393 -8.59375,-36.32812c4.00565,-7.0099 13.54169,-10.33878 21.09375,-10.54687c3.42212,-0.09429 7.3109,1.72103 10.27027,0c2.11525,-1.23013 4.14285,-6.07391 1.91528,-7.08655c-7.4148,-3.37072 -16.37149,-2.06473 -24.44692,-3.1271c-63.26763,-8.32317 -126.50699,-16.86411 -189.80231,-24.97399c-17.10976,-2.19223 -34.26064,-4.05437 -51.40781,-5.93167c-14.09452,-1.5431 -20.24416,-0.83768 -30.62226,-11.42757c-1.88024,-1.91861 -2.2243,-8.02352 -2.46632,-9.1254c-0.20216,-0.9204 -1.88657,-5.43174 -1.35357,-7.40386c0.47998,-1.77591 1.33488,-3.43193 1.87739,-5.18974c0.73186,-2.37134 1.09828,-4.85355 1.9425,-7.18725c1.05203,-2.90815 6.08286,-5.59416 8.59375,-7.42187c3.00498,-2.18737 8.61475,-3.11341 12.5,-3.125c16.01352,-0.04779 32.04063,-0.63464 48.04076,0.02167c26.58575,1.09052 53.25708,5.74078 79.75513,3.32313c3.55721,-0.32456 -2.95567,-6.77639 -2.79589,-10.3448c0.22323,-4.98557 1.43024,-10.1201 3.90625,-14.45312c4.91334,-8.59834 7.97216,-6.39727 14.69382,-9.36281c0.98814,-0.43596 -0.67192,-2.10642 -0.60007,-3.18407c0.09164,-1.37461 0.87715,-2.62694 1.07833,-3.98983c0.29494,-1.99809 -0.12392,-4.09602 0.40305,-6.0458c1.40749,-5.20771 9.85837,-11.51036 14.86193,-13.32977c1.2298,-0.44718 2.48455,-0.83066 3.75379,-1.14912c1.34271,-0.33689 5.19455,-0.00393 4.07233,-0.81447c-1.75188,-1.26532 -4.27894,-0.61043 -6.42271,-0.88312c-9.99968,-1.272 -19.99096,-2.61705 -30.00724,-3.75091c-16.78726,-1.90033 -20.43211,-1.86664 -34.6513,-4.03699c-5.11439,-0.78063 -6.91892,0.22501 -12.58817,-3.125c-8.65911,-5.11675 -12.5,-11.10818 -12.5,-21.875c0,-4.99056 1.48403,-10.0898 3.90625,-14.45312c1.69071,-3.0456 6.47998,-3.65368 7.90899,-6.83049c0.95138,-2.11499 -2.0432,-4.40849 -1.81524,-6.71638c0.49055,-4.9664 1.43024,-10.1201 3.90625,-14.45312c3.74807,-6.55912 10.64229,-8.51995 17.1875,-10.15625c7.9922,-1.99805 17.10766,-0.64348 25.05823,-0.27543c24.85438,1.15057 49.62462,4.93805 74.43654,6.79079c0.73887,0.05517 -1.21998,-0.87384 -1.68226,-1.45286c-0.48826,-0.61156 -0.97008,-1.25982 -1.23669,-1.99557c-0.36967,-1.02014 0.4893,-2.92153 -0.55751,-3.20708c-6.51484,-1.7771 -13.4094,-1.6103 -20.11219,-2.43114c-16.86686,-2.06556 -39.69733,-1.01462 -52.09361,-15.36621c-0.81279,-0.94099 -1.32847,-2.1076 -1.87839,-3.22281c-0.24931,-0.50559 0.36003,-1.60692 -0.19901,-1.67941c-29.12287,-3.77641 -58.37357,-6.49152 -87.56435,-9.70101c-42.65824,-4.69022 -85.32326,-9.31848 -127.98266,-13.9981c-8.53505,-0.93627 -15.6737,-2.39571 -21.77297,-8.28732c-1.27155,-1.22826 -4.8408,-4.04267 -5.43459,-6.23972c-0.58564,-2.16686 -0.41553,-4.47583 -0.81993,-6.68371c-0.44146,-2.41023 -1.69964,-5.59929 -1.00308,-8.17659c1.14114,-4.2222 2.58267,-10.88099 5.91097,-13.75544c19.73709,-17.04567 70.43697,-7.75675 82.95675,-7.69713c34.88282,0.1661 70.23764,0.63942 105.1191,0.98923c5.91416,0.05931 9.97747,1.20595 17.49536,0.89195c0.61629,-0.02574 0.46628,-1.20866 0.95499,-1.58501c2.60866,-2.00896 7.25479,-3.80585 10.30204,-4.77543c5.38814,-1.71441 15.4106,-0.56742 19.54007,-0.47959c15.8047,0.33612 31.73846,1.29456 47.53232,1.96955c60.6457,2.59184 121.22601,6.6061 181.7865,10.73474c3.83653,0.26155 5.34,-5.67606 8.65063,-7.63235c2.58803,-1.52929 5.67741,-2.00529 8.59375,-2.73437c9.81579,-2.45395 20.74173,-1.35603 30.77185,-0.22585c78.6329,8.86026 157.45864,16.57904 236.16,24.90724c29.81621,3.15516 59.66268,6.01765 89.49112,9.05498c13.71046,1.39609 26.33558,4.04749 40.12788,5.06589c47.25185,3.48899 95.22489,5.97144 142.43994,9.92734c54.37579,4.55587 109.2818,10.35639 163.51541,16.03091c7.43224,0.77764 15.0566,0.42706 22.30629,2.23949c6.55896,1.63974 13.42211,3.5928 17.1875,10.15625c2.45537,4.27996 1.98346,9.72746 3.86218,14.29006c0.76163,1.84968 4.35945,3.54525 4.99062,5.88054c0.67989,2.51561 2.60359,11.87422 1.79564,14.86362c-0.41617,1.53983 -1.30663,2.91135 -1.89735,4.39301c-0.14528,0.36441 -0.69714,1.09447 -0.30706,1.13613c62.90495,6.71919 126.75598,11.30688 189.53943,19.07986c43.00118,5.32381 86.00705,10.6101 129,16c5.71564,0.71655 12.98451,2.74961 17.4228,5.93489c10.0827,7.23616 13.60947,13.63714 11.33201,26.19657c-0.49113,2.7084 -1.00978,7.72435 -2.73826,10.13156c-4.18474,5.82796 -8.8965,7.40112 -15.19197,9.72477l23.32002,3.03058c109.27302,25.45883 224.78981,30.91757 335.97164,45.99553c9.65227,1.309 19.32356,2.48815 29.01134,3.50137c18.68702,1.95442 37.6513,3.52422 56.34235,5.43969c19.79009,2.0281 48.93035,-1.35542 64.5466,15.40181c2.84645,3.05443 3.25265,10.28907 3.90625,14.45313c0.36087,2.29908 -1.49354,5.84176 -2.04305,7.55929c-0.717,2.24101 -1.25714,7.10967 -3.54851,9.08858c-10.96572,9.47039 -24.15373,9.76175 -38.40395,8.17202c-4.99879,-0.55766 -9.97717,-2.32162 -14.98068,-1.80801c-1.18203,0.12133 -0.33878,2.41057 -0.93007,3.44125c-0.74852,1.30474 -1.73079,2.49983 -2.8692,3.48301c-2.35115,2.03054 -6.69912,4.82021 -9.76462,5.7956c-10.20552,3.24721 -25.69269,1.50729 -34.19761,1.25738c-90.33602,-2.65448 -181.60731,-2.45436 -271.80973,-8.03705c-108.12343,-6.69183 -216.23527,-13.57238 -324.36778,-20.11583c-3.92495,-0.23751 -6.60091,4.30627 -10.11759,6.06542c-3.43991,1.72075 -9.0742,2.0274 -12.96722,2.09835c-36.46954,0.66458 -72.66293,-2.53542 -108.96775,-5.09343c-4.2526,-0.29964 8.49102,0.7797 12.72854,1.24634c5.90138,0.64987 23.18893,1.10147 29.73921,4.97209c8.83323,5.21963 12.27042,10.97252 12.5,21.875c0.08988,4.26817 -3.86812,8.12724 -3.34156,12.36376c0.20463,1.64634 3.29624,0.38033 4.94659,0.54962c3.08422,0.31637 6.24766,-0.28614 9.30121,0.47725c18.4442,4.61105 27.4367,21.1264 17.1875,39.0625c-1.87789,3.28631 -5.33513,5.49633 -8.59375,7.42188c-2.58803,1.52929 -5.67741,2.00529 -8.59375,2.73438c-4.40437,1.10109 -9.27546,0.43242 -13.78401,0.11361c-8.61305,-0.60904 -17.22872,-1.18057 -25.84229,-1.78223c-0.07688,-0.00537 -0.1511,-0.03277 -0.22793,-0.03878c-50.11509,-3.92031 -100.10546,-9.30098 -150.17506,-13.76484c-0.26553,-0.02367 0.49185,0.32026 0.55025,0.58037c0.52911,2.35642 0.7011,4.78159 1.18501,7.1477c0.29126,1.42413 0.13723,3.15533 1.13778,4.20979c0.72778,0.767 2.13051,0.0591 3.15625,0.31562c2.36088,0.59043 4.55063,1.85123 6.95709,2.21362c12.65358,1.9055 25.413,3.02602 38.11529,4.57384c8.89902,1.08437 22.70613,4.09178 27.236,4.82192c2.20587,0.35555 4.524,-0.15128 6.69162,0.39063c3.15894,0.78973 5.9723,2.891 9.20702,3.26401c5.37908,0.62029 10.78235,1.01868 16.18312,1.40723c8.31808,0.59842 27.87476,-0.85846 36.20361,4.06313c16.59429,9.80571 16.59429,33.94429 0,43.75c-11.28398,6.66781 -27.42551,2.83493 -39.79639,2.06313c-17.37119,-1.08376 -34.75386,-1.97514 -52.12986,-2.97885c-7.90986,-0.45691 -13.45863,-1.61179 -23.61362,-1.95928c-3.11571,-0.10662 -7.52629,-0.0385 -12.41941,0.04134c0.94703,2.62231 1.45928,5.59438 1.45928,8.95866z" fill="#000000" stroke-width="0.5"/><text transform="translate(151.5,92.66666) scale(0.5,0.5)" font-size="40" xml:space="preserve" fill="#ffffff" stroke-width="1" font-family="&quot;Minecraft&quot;, Pixel" font-weight="normal" text-anchor="start"><tspan x="0" dy="0">The end</tspan></text><text transform="translate(141.5,118.66666) scale(0.5,0.5)" font-size="40" xml:space="preserve" fill="#ffffff" stroke-width="1" font-family="&quot;Minecraft&quot;, Pixel" font-weight="normal" text-anchor="start"><tspan x="0" dy="0">张浩勋吃饱了</tspan></text></g></g></svg>