<svg version="1.1" xmlns="http://www.w3.org/2000/svg" xmlns:xlink="http://www.w3.org/1999/xlink" width="91.001" height="54.672" viewBox="0,0,91.001,54.672"><defs><linearGradient x1="195.1699" y1="176.1562" x2="286.1699" y2="176.1562" gradientUnits="userSpaceOnUse" id="color-1"><stop offset="0.012" stop-color="#a7a9ac"/><stop offset="1" stop-color="#414042"/></linearGradient><linearGradient x1="198.583" y1="176.1553" x2="282.7559" y2="176.1553" gradientUnits="userSpaceOnUse" id="color-2"><stop offset="0" stop-color="#d1d2d3"/><stop offset="1" stop-color="#a4a5a8"/></linearGradient></defs><g transform="translate(-195.169,-148.82)"><g stroke="none" stroke-miterlimit="10"><path d="M286.17,194.887c0,4.752 -3.854,8.605 -8.605,8.605h-73.792c-4.752,0 -8.604,-3.854 -8.604,-8.605v-37.463c0,-4.752 3.852,-8.604 8.604,-8.604h73.791c4.754,0 8.605,3.852 8.605,8.604v37.463z" fill="url(#color-1)"/><path d="M282.755,157.424v37.462c0,2.862 -2.327,5.19 -5.191,5.19h-73.791c-2.861,0 -5.19,-2.328 -5.19,-5.19v-37.463c0,-2.862 2.329,-5.19 5.19,-5.19h73.791c2.864,0 5.191,2.329 5.191,5.191z" fill="url(#color-2)"/><text transform="translate(231.48229,158.76532) scale(0.1933,0.1831)" font-size="40" xml:space="preserve" fill="#ff5959" font-family="Pixel" font-weight="normal" text-anchor="start"><tspan x="0" dy="0">设置</tspan></text><text transform="translate(232.92871,165.02511) scale(0.15446,0.15446)" font-size="40" xml:space="preserve" fill="#ff5959" font-family="Pixel" font-weight="normal" text-anchor="start"><tspan x="0" dy="0">作弊</tspan></text><text transform="translate(199.92871,172.71666) scale(0.17857,0.17857)" font-size="40" xml:space="preserve" fill="#ff5959" font-family="Pixel" font-weight="normal" text-anchor="start"><tspan x="0" dy="0">狂吃屎模式</tspan></text><text transform="translate(199.28586,180.02715) scale(0.16071,0.16071)" font-size="40" xml:space="preserve" fill="#ff5959" font-family="Sans Serif" font-weight="normal" text-anchor="start"><tspan x="0" dy="0">更换屎为稀屎</tspan><tspan x="0" dy="48px">DEBUG MODE</tspan></text><text transform="translate(201.00014,196.87796) scale(0.14031,0.15847)" font-size="40" xml:space="preserve" fill="#ff5959" font-family="Pixel" font-weight="normal" text-anchor="start"><tspan x="0" dy="0">0.18更新预览</tspan></text></g></g></svg>