<svg version="1.1" xmlns="http://www.w3.org/2000/svg" xmlns:xlink="http://www.w3.org/1999/xlink" width="344.46657" height="274.37981" viewBox="0,0,344.46657,274.37981"><g transform="translate(-51.99138,-38.5382)"><g stroke="none" stroke-miterlimit="10"><path d="M92.35827,260.8717c-5.54838,-17.02582 -4.0369,-37.43799 8.5262,-51.2733c7.89679,-8.69646 18.43237,-12.75075 30.0276,-13.52036c5.2044,-0.34543 10.43102,-0.20738 15.6467,-0.16484c0.41644,0.0034 1.53803,0.41841 1.24316,0.12432c-1.43749,-1.43374 -4.1535,-1.22587 -5.5157,-2.38839c-2.44584,-2.08731 -4.40834,-4.68482 -6.51001,-7.11833c-2.61144,-3.02378 -4.14141,-9.04037 -3.92695,-12.65754c0.26007,-4.38634 -1.11129,-9.52323 -0.9583,-14.04363c0.28823,-8.51613 3.84301,-16.96106 9.24191,-23.48383c2.46949,-2.98355 5.37896,-5.45542 8.67764,-7.49802c1.50089,-0.92938 6.14642,-2.76562 6.74877,-3.59022c0.45741,-0.62619 -0.85619,-1.32058 -1.06879,-2.06632c-0.41603,-1.45934 -1.1829,-5.88103 -1.26142,-6.95415c-0.22901,-3.12983 1.62103,-8.25067 3.03352,-10.94233c3.51819,-6.7043 10.90407,-12.01779 17.99224,-14.18764c2.00926,-0.61508 7.35496,-0.54105 9.02468,-1.71378c0.22234,-0.15616 -0.19224,-0.86249 -0.24659,-1.16352c-0.21007,-1.16344 -0.37123,-2.95773 -0.39062,-3.90625c-0.07228,-3.53419 -0.0573,-7.07032 0,-10.60478c0.17088,-10.53988 1.63931,-25.69951 11.39526,-31.27434c4.33302,-2.47601 9.46256,-3.90625 14.45313,-3.90625c4.99056,0 10.1201,1.43024 14.45313,3.90625c3.28631,1.87789 5.49633,5.33513 7.42188,8.59375c6.3462,10.73973 0.0211,20.33719 2.52968,30.83146c0.70696,2.95746 0.9814,5.67203 1.38226,8.62651c0.07017,0.51716 -0.13326,1.18077 0.23808,1.5475c0.84141,0.83098 2.3625,0.1402 3.53645,0.2828c3.74356,0.45473 7.70703,1.66712 11.24188,2.74271c9.82215,2.98867 19.32571,9.93225 23.52583,19.47748c2.98311,6.77943 3.97761,22.8617 -0.88342,28.93798c-0.74442,0.93053 -5.6555,6.99898 -7.42187,8.59375c-0.77139,0.69645 -3.41819,1.0375 -2.61529,1.69737c1.54098,1.26646 3.74028,1.38729 5.61376,2.07186c3.83555,1.40151 9.23496,3.38645 11.59245,4.29303c4.68416,1.80131 9.95101,5.16671 13.86518,7.19108c8.15536,4.21787 13.09815,6.47259 20.39722,10.66583c0.61829,0.3552 1.53015,0.1239 2.04965,0.61233c2.19227,2.06113 3.92067,4.56578 5.90029,6.83192c4.22173,4.83274 5.74659,12.5933 4.70766,18.89038c-0.47307,2.86729 -1.87818,5.94075 -3.01203,8.59703c-0.32529,0.76208 -1.77024,2.31427 -0.94176,2.30049c5.34735,-0.0889 10.7882,-3.00344 16.41421,-2.68976c8.45176,0.47123 15.49664,2.80188 23.50354,5.67448c15.89274,5.70177 34.67257,15.16834 34.46679,34.70753c-0.12568,11.93387 -9.38803,22.6453 -18.66154,28.96905c-15.84344,10.80389 -33.33687,18.12588 -51.89896,22.92113c-13.90561,3.59232 -28.07464,1.50166 -42.11405,1.33624c-14.56828,-0.17164 -29.14386,-0.39202 -43.70788,0c-12.67133,0.34108 -27.21519,2.53435 -40.15416,3.34166c-17.17336,1.07152 -34.37999,0.83181 -51.56044,1.7184c-22.72757,1.17285 -45.62512,3.94485 -68.05529,-1.78005c-9.51063,-2.42742 -24.27714,-8.38389 -26.67205,-19.35409c-0.48999,-1.28156 -0.87755,-2.61377 -1.15267,-3.98662c-0.31998,-1.59672 -0.48785,-3.24841 -0.48785,-4.9393c0,-9.83148 5.6751,-18.33747 13.92812,-22.42079c1.66652,-1.11881 3.52946,-1.84353 5.65069,-1.98982c1.74552,-0.38592 3.55959,-0.58939 5.42119,-0.58939c5.08813,0 9.82123,1.52003 13.76999,4.13076c0.52878,0.20675 1.77281,1.13238 1.59689,0.59256z" fill="#2579dc" stroke-width="0.5"/><text transform="translate(174.74648,124.97834) scale(0.5,0.5)" font-size="40" xml:space="preserve" fill="#ff6666" stroke-width="1" font-family="Sans Serif" font-weight="normal" text-anchor="start"><tspan x="0" dy="0">吃屎数</tspan></text><text transform="translate(160.9233,155.47064) scale(0.5,0.5)" font-size="40" xml:space="preserve" fill="#ff6666" stroke-width="1" font-family="Sans Serif" font-weight="normal" text-anchor="start"><tspan x="0" dy="0">100-1000</tspan></text><text transform="translate(169.86771,186.3695) scale(0.5,0.5)" font-size="40" xml:space="preserve" fill="#ff6666" stroke-width="1" font-family="Sans Serif" font-weight="normal" text-anchor="start"><tspan x="0" dy="0">蓝宝石屎</tspan></text></g></g></svg>